<svg width="299" height="395" viewBox="0 0 299 395" fill="none" xmlns="http://www.w3.org/2000/svg">
<g clip-path="url(#clip0_236_10172)">
<path fill-rule="evenodd" clip-rule="evenodd" d="M0 25C0 11.1929 11.1929 0 25 0H274C287.807 0 299 11.1929 299 25V289.088C298.684 289.067 298.365 289.057 298.043 289.057C290.104 289.057 283.668 295.464 283.668 303.368C283.668 311.272 290.104 317.68 298.043 317.68C298.365 317.68 298.684 317.669 299 317.649V370C299 383.807 287.807 395 274 395H25C11.1929 395 0 383.807 0 370V317.649C7.4929 317.158 13.418 310.952 13.418 303.368C13.418 295.784 7.4929 289.578 0 289.088V25Z" fill="white"/>
<path d="M13.4141 303.348H283.666" stroke="#464553" stroke-dasharray="7 7"/>
</g>
<defs>
<clipPath id="clip0_236_10172">
<rect width="299" height="395" fill="white"/>
</clipPath>
</defs>
</svg>
